<?xml version="1.0" encoding="utf-8" standalone="no"?>
<!DOCTYPE svg PUBLIC "-//W3C//DTD SVG 1.1//EN"
  "http://www.w3.org/Graphics/SVG/1.1/DTD/svg11.dtd">
<svg xmlns:xlink="http://www.w3.org/1999/xlink" width="460.8pt" height="345.6pt" viewBox="0 0 460.8 345.6" xmlns="http://www.w3.org/2000/svg" version="1.1">
 <metadata>
  <rdf:RDF xmlns:dc="http://purl.org/dc/elements/1.1/" xmlns:cc="http://creativecommons.org/ns#" xmlns:rdf="http://www.w3.org/1999/02/22-rdf-syntax-ns#">
   <cc:Work>
    <dc:type rdf:resource="http://purl.org/dc/dcmitype/StillImage"/>
    <dc:date>2023-06-12T16:27:57.612415</dc:date>
    <dc:format>image/svg+xml</dc:format>
    <dc:creator>
     <cc:Agent>
      <dc:title>Matplotlib v3.7.1, https://matplotlib.org/</dc:title>
     </cc:Agent>
    </dc:creator>
   </cc:Work>
  </rdf:RDF>
 </metadata>
 <defs>
  <style type="text/css">*{stroke-linejoin: round; stroke-linecap: butt}</style>
 </defs>
 <g id="figure_1">
  <g id="patch_1">
   <path d="M 0 345.6 
L 460.8 345.6 
L 460.8 0 
L 0 0 
z
" style="fill: #ffffff"/>
  </g>
  <g id="axes_1">
   <g id="patch_2">
    <path d="M 57.6 307.584 
L 414.72 307.584 
L 414.72 41.472 
L 57.6 41.472 
z
" style="fill: #ffffff"/>
   </g>
   <g id="matplotlib.axis_1">
    <g id="xtick_1">
     <g id="line2d_1">
      <path d="M 125.093971 307.584 
L 125.093971 41.472 
" clip-path="url(#p6bbb4da697)" style="fill: none; stroke: #b0b0b0; stroke-width: 0.8; stroke-linecap: square"/>
     </g>
     <g id="line2d_2">
      <defs>
       <path id="m544c20626e" d="M 0 0 
L 0 3.5 
" style="stroke: #000000; stroke-width: 0.8"/>
      </defs>
      <g>
       <use xlink:href="#m544c20626e" x="125.093971" y="307.584" style="stroke: #000000; stroke-width: 0.8"/>
      </g>
     </g>
     <g id="text_1">
      <!-- 2000 -->
      <g transform="translate(112.368971 322.182437) scale(0.1 -0.1)">
       <defs>
        <path id="DejaVuSans-32" d="M 1228 531 
L 3431 531 
L 3431 0 
L 469 0 
L 469 531 
Q 828 903 1448 1529 
Q 2069 2156 2228 2338 
Q 2531 2678 2651 2914 
Q 2772 3150 2772 3378 
Q 2772 3750 2511 3984 
Q 2250 4219 1831 4219 
Q 1534 4219 1204 4116 
Q 875 4013 500 3803 
L 500 4441 
Q 881 4594 1212 4672 
Q 1544 4750 1819 4750 
Q 2544 4750 2975 4387 
Q 3406 4025 3406 3419 
Q 3406 3131 3298 2873 
Q 3191 2616 2906 2266 
Q 2828 2175 2409 1742 
Q 1991 1309 1228 531 
z
" transform="scale(0.015625)"/>
        <path id="DejaVuSans-30" d="M 2034 4250 
Q 1547 4250 1301 3770 
Q 1056 3291 1056 2328 
Q 1056 1369 1301 889 
Q 1547 409 2034 409 
Q 2525 409 2770 889 
Q 3016 1369 3016 2328 
Q 3016 3291 2770 3770 
Q 2525 4250 2034 4250 
z
M 2034 4750 
Q 2819 4750 3233 4129 
Q 3647 3509 3647 2328 
Q 3647 1150 3233 529 
Q 2819 -91 2034 -91 
Q 1250 -91 836 529 
Q 422 1150 422 2328 
Q 422 3509 836 4129 
Q 1250 4750 2034 4750 
z
" transform="scale(0.015625)"/>
       </defs>
       <use xlink:href="#DejaVuSans-32"/>
       <use xlink:href="#DejaVuSans-30" x="63.623047"/>
       <use xlink:href="#DejaVuSans-30" x="127.246094"/>
       <use xlink:href="#DejaVuSans-30" x="190.869141"/>
      </g>
     </g>
    </g>
    <g id="xtick_2">
     <g id="line2d_3">
      <path d="M 193.442297 307.584 
L 193.442297 41.472 
" clip-path="url(#p6bbb4da697)" style="fill: none; stroke: #b0b0b0; stroke-width: 0.8; stroke-linecap: square"/>
     </g>
     <g id="line2d_4">
      <g>
       <use xlink:href="#m544c20626e" x="193.442297" y="307.584" style="stroke: #000000; stroke-width: 0.8"/>
      </g>
     </g>
     <g id="text_2">
      <!-- 4000 -->
      <g transform="translate(180.717297 322.182437) scale(0.1 -0.1)">
       <defs>
        <path id="DejaVuSans-34" d="M 2419 4116 
L 825 1625 
L 2419 1625 
L 2419 4116 
z
M 2253 4666 
L 3047 4666 
L 3047 1625 
L 3713 1625 
L 3713 1100 
L 3047 1100 
L 3047 0 
L 2419 0 
L 2419 1100 
L 313 1100 
L 313 1709 
L 2253 4666 
z
" transform="scale(0.015625)"/>
       </defs>
       <use xlink:href="#DejaVuSans-34"/>
       <use xlink:href="#DejaVuSans-30" x="63.623047"/>
       <use xlink:href="#DejaVuSans-30" x="127.246094"/>
       <use xlink:href="#DejaVuSans-30" x="190.869141"/>
      </g>
     </g>
    </g>
    <g id="xtick_3">
     <g id="line2d_5">
      <path d="M 261.790622 307.584 
L 261.790622 41.472 
" clip-path="url(#p6bbb4da697)" style="fill: none; stroke: #b0b0b0; stroke-width: 0.8; stroke-linecap: square"/>
     </g>
     <g id="line2d_6">
      <g>
       <use xlink:href="#m544c20626e" x="261.790622" y="307.584" style="stroke: #000000; stroke-width: 0.8"/>
      </g>
     </g>
     <g id="text_3">
      <!-- 6000 -->
      <g transform="translate(249.065622 322.182437) scale(0.1 -0.1)">
       <defs>
        <path id="DejaVuSans-36" d="M 2113 2584 
Q 1688 2584 1439 2293 
Q 1191 2003 1191 1497 
Q 1191 994 1439 701 
Q 1688 409 2113 409 
Q 2538 409 2786 701 
Q 3034 994 3034 1497 
Q 3034 2003 2786 2293 
Q 2538 2584 2113 2584 
z
M 3366 4563 
L 3366 3988 
Q 3128 4100 2886 4159 
Q 2644 4219 2406 4219 
Q 1781 4219 1451 3797 
Q 1122 3375 1075 2522 
Q 1259 2794 1537 2939 
Q 1816 3084 2150 3084 
Q 2853 3084 3261 2657 
Q 3669 2231 3669 1497 
Q 3669 778 3244 343 
Q 2819 -91 2113 -91 
Q 1303 -91 875 529 
Q 447 1150 447 2328 
Q 447 3434 972 4092 
Q 1497 4750 2381 4750 
Q 2619 4750 2861 4703 
Q 3103 4656 3366 4563 
z
" transform="scale(0.015625)"/>
       </defs>
       <use xlink:href="#DejaVuSans-36"/>
       <use xlink:href="#DejaVuSans-30" x="63.623047"/>
       <use xlink:href="#DejaVuSans-30" x="127.246094"/>
       <use xlink:href="#DejaVuSans-30" x="190.869141"/>
      </g>
     </g>
    </g>
    <g id="xtick_4">
     <g id="line2d_7">
      <path d="M 330.138947 307.584 
L 330.138947 41.472 
" clip-path="url(#p6bbb4da697)" style="fill: none; stroke: #b0b0b0; stroke-width: 0.8; stroke-linecap: square"/>
     </g>
     <g id="line2d_8">
      <g>
       <use xlink:href="#m544c20626e" x="330.138947" y="307.584" style="stroke: #000000; stroke-width: 0.8"/>
      </g>
     </g>
     <g id="text_4">
      <!-- 8000 -->
      <g transform="translate(317.413947 322.182437) scale(0.1 -0.1)">
       <defs>
        <path id="DejaVuSans-38" d="M 2034 2216 
Q 1584 2216 1326 1975 
Q 1069 1734 1069 1313 
Q 1069 891 1326 650 
Q 1584 409 2034 409 
Q 2484 409 2743 651 
Q 3003 894 3003 1313 
Q 3003 1734 2745 1975 
Q 2488 2216 2034 2216 
z
M 1403 2484 
Q 997 2584 770 2862 
Q 544 3141 544 3541 
Q 544 4100 942 4425 
Q 1341 4750 2034 4750 
Q 2731 4750 3128 4425 
Q 3525 4100 3525 3541 
Q 3525 3141 3298 2862 
Q 3072 2584 2669 2484 
Q 3125 2378 3379 2068 
Q 3634 1759 3634 1313 
Q 3634 634 3220 271 
Q 2806 -91 2034 -91 
Q 1263 -91 848 271 
Q 434 634 434 1313 
Q 434 1759 690 2068 
Q 947 2378 1403 2484 
z
M 1172 3481 
Q 1172 3119 1398 2916 
Q 1625 2713 2034 2713 
Q 2441 2713 2670 2916 
Q 2900 3119 2900 3481 
Q 2900 3844 2670 4047 
Q 2441 4250 2034 4250 
Q 1625 4250 1398 4047 
Q 1172 3844 1172 3481 
z
" transform="scale(0.015625)"/>
       </defs>
       <use xlink:href="#DejaVuSans-38"/>
       <use xlink:href="#DejaVuSans-30" x="63.623047"/>
       <use xlink:href="#DejaVuSans-30" x="127.246094"/>
       <use xlink:href="#DejaVuSans-30" x="190.869141"/>
      </g>
     </g>
    </g>
    <g id="xtick_5">
     <g id="line2d_9">
      <path d="M 398.487273 307.584 
L 398.487273 41.472 
" clip-path="url(#p6bbb4da697)" style="fill: none; stroke: #b0b0b0; stroke-width: 0.8; stroke-linecap: square"/>
     </g>
     <g id="line2d_10">
      <g>
       <use xlink:href="#m544c20626e" x="398.487273" y="307.584" style="stroke: #000000; stroke-width: 0.8"/>
      </g>
     </g>
     <g id="text_5">
      <!-- 10000 -->
      <g transform="translate(382.581023 322.182437) scale(0.1 -0.1)">
       <defs>
        <path id="DejaVuSans-31" d="M 794 531 
L 1825 531 
L 1825 4091 
L 703 3866 
L 703 4441 
L 1819 4666 
L 2450 4666 
L 2450 531 
L 3481 531 
L 3481 0 
L 794 0 
L 794 531 
z
" transform="scale(0.015625)"/>
       </defs>
       <use xlink:href="#DejaVuSans-31"/>
       <use xlink:href="#DejaVuSans-30" x="63.623047"/>
       <use xlink:href="#DejaVuSans-30" x="127.246094"/>
       <use xlink:href="#DejaVuSans-30" x="190.869141"/>
       <use xlink:href="#DejaVuSans-30" x="254.492188"/>
      </g>
     </g>
    </g>
    <g id="text_6">
     <!-- Amount of elements -->
     <g transform="translate(185.292031 335.860562) scale(0.1 -0.1)">
      <defs>
       <path id="DejaVuSans-41" d="M 2188 4044 
L 1331 1722 
L 3047 1722 
L 2188 4044 
z
M 1831 4666 
L 2547 4666 
L 4325 0 
L 3669 0 
L 3244 1197 
L 1141 1197 
L 716 0 
L 50 0 
L 1831 4666 
z
" transform="scale(0.015625)"/>
       <path id="DejaVuSans-6d" d="M 3328 2828 
Q 3544 3216 3844 3400 
Q 4144 3584 4550 3584 
Q 5097 3584 5394 3201 
Q 5691 2819 5691 2113 
L 5691 0 
L 5113 0 
L 5113 2094 
Q 5113 2597 4934 2840 
Q 4756 3084 4391 3084 
Q 3944 3084 3684 2787 
Q 3425 2491 3425 1978 
L 3425 0 
L 2847 0 
L 2847 2094 
Q 2847 2600 2669 2842 
Q 2491 3084 2119 3084 
Q 1678 3084 1418 2786 
Q 1159 2488 1159 1978 
L 1159 0 
L 581 0 
L 581 3500 
L 1159 3500 
L 1159 2956 
Q 1356 3278 1631 3431 
Q 1906 3584 2284 3584 
Q 2666 3584 2933 3390 
Q 3200 3197 3328 2828 
z
" transform="scale(0.015625)"/>
       <path id="DejaVuSans-6f" d="M 1959 3097 
Q 1497 3097 1228 2736 
Q 959 2375 959 1747 
Q 959 1119 1226 758 
Q 1494 397 1959 397 
Q 2419 397 2687 759 
Q 2956 1122 2956 1747 
Q 2956 2369 2687 2733 
Q 2419 3097 1959 3097 
z
M 1959 3584 
Q 2709 3584 3137 3096 
Q 3566 2609 3566 1747 
Q 3566 888 3137 398 
Q 2709 -91 1959 -91 
Q 1206 -91 779 398 
Q 353 888 353 1747 
Q 353 2609 779 3096 
Q 1206 3584 1959 3584 
z
" transform="scale(0.015625)"/>
       <path id="DejaVuSans-75" d="M 544 1381 
L 544 3500 
L 1119 3500 
L 1119 1403 
Q 1119 906 1312 657 
Q 1506 409 1894 409 
Q 2359 409 2629 706 
Q 2900 1003 2900 1516 
L 2900 3500 
L 3475 3500 
L 3475 0 
L 2900 0 
L 2900 538 
Q 2691 219 2414 64 
Q 2138 -91 1772 -91 
Q 1169 -91 856 284 
Q 544 659 544 1381 
z
M 1991 3584 
L 1991 3584 
z
" transform="scale(0.015625)"/>
       <path id="DejaVuSans-6e" d="M 3513 2113 
L 3513 0 
L 2938 0 
L 2938 2094 
Q 2938 2591 2744 2837 
Q 2550 3084 2163 3084 
Q 1697 3084 1428 2787 
Q 1159 2491 1159 1978 
L 1159 0 
L 581 0 
L 581 3500 
L 1159 3500 
L 1159 2956 
Q 1366 3272 1645 3428 
Q 1925 3584 2291 3584 
Q 2894 3584 3203 3211 
Q 3513 2838 3513 2113 
z
" transform="scale(0.015625)"/>
       <path id="DejaVuSans-74" d="M 1172 4494 
L 1172 3500 
L 2356 3500 
L 2356 3053 
L 1172 3053 
L 1172 1153 
Q 1172 725 1289 603 
Q 1406 481 1766 481 
L 2356 481 
L 2356 0 
L 1766 0 
Q 1100 0 847 248 
Q 594 497 594 1153 
L 594 3053 
L 172 3053 
L 172 3500 
L 594 3500 
L 594 4494 
L 1172 4494 
z
" transform="scale(0.015625)"/>
       <path id="DejaVuSans-20" transform="scale(0.015625)"/>
       <path id="DejaVuSans-66" d="M 2375 4863 
L 2375 4384 
L 1825 4384 
Q 1516 4384 1395 4259 
Q 1275 4134 1275 3809 
L 1275 3500 
L 2222 3500 
L 2222 3053 
L 1275 3053 
L 1275 0 
L 697 0 
L 697 3053 
L 147 3053 
L 147 3500 
L 697 3500 
L 697 3744 
Q 697 4328 969 4595 
Q 1241 4863 1831 4863 
L 2375 4863 
z
" transform="scale(0.015625)"/>
       <path id="DejaVuSans-65" d="M 3597 1894 
L 3597 1613 
L 953 1613 
Q 991 1019 1311 708 
Q 1631 397 2203 397 
Q 2534 397 2845 478 
Q 3156 559 3463 722 
L 3463 178 
Q 3153 47 2828 -22 
Q 2503 -91 2169 -91 
Q 1331 -91 842 396 
Q 353 884 353 1716 
Q 353 2575 817 3079 
Q 1281 3584 2069 3584 
Q 2775 3584 3186 3129 
Q 3597 2675 3597 1894 
z
M 3022 2063 
Q 3016 2534 2758 2815 
Q 2500 3097 2075 3097 
Q 1594 3097 1305 2825 
Q 1016 2553 972 2059 
L 3022 2063 
z
" transform="scale(0.015625)"/>
       <path id="DejaVuSans-6c" d="M 603 4863 
L 1178 4863 
L 1178 0 
L 603 0 
L 603 4863 
z
" transform="scale(0.015625)"/>
       <path id="DejaVuSans-73" d="M 2834 3397 
L 2834 2853 
Q 2591 2978 2328 3040 
Q 2066 3103 1784 3103 
Q 1356 3103 1142 2972 
Q 928 2841 928 2578 
Q 928 2378 1081 2264 
Q 1234 2150 1697 2047 
L 1894 2003 
Q 2506 1872 2764 1633 
Q 3022 1394 3022 966 
Q 3022 478 2636 193 
Q 2250 -91 1575 -91 
Q 1294 -91 989 -36 
Q 684 19 347 128 
L 347 722 
Q 666 556 975 473 
Q 1284 391 1588 391 
Q 1994 391 2212 530 
Q 2431 669 2431 922 
Q 2431 1156 2273 1281 
Q 2116 1406 1581 1522 
L 1381 1569 
Q 847 1681 609 1914 
Q 372 2147 372 2553 
Q 372 3047 722 3315 
Q 1072 3584 1716 3584 
Q 2034 3584 2315 3537 
Q 2597 3491 2834 3397 
z
" transform="scale(0.015625)"/>
      </defs>
      <use xlink:href="#DejaVuSans-41"/>
      <use xlink:href="#DejaVuSans-6d" x="68.408203"/>
      <use xlink:href="#DejaVuSans-6f" x="165.820312"/>
      <use xlink:href="#DejaVuSans-75" x="227.001953"/>
      <use xlink:href="#DejaVuSans-6e" x="290.380859"/>
      <use xlink:href="#DejaVuSans-74" x="353.759766"/>
      <use xlink:href="#DejaVuSans-20" x="392.96875"/>
      <use xlink:href="#DejaVuSans-6f" x="424.755859"/>
      <use xlink:href="#DejaVuSans-66" x="485.9375"/>
      <use xlink:href="#DejaVuSans-20" x="521.142578"/>
      <use xlink:href="#DejaVuSans-65" x="552.929688"/>
      <use xlink:href="#DejaVuSans-6c" x="614.453125"/>
      <use xlink:href="#DejaVuSans-65" x="642.236328"/>
      <use xlink:href="#DejaVuSans-6d" x="703.759766"/>
      <use xlink:href="#DejaVuSans-65" x="801.171875"/>
      <use xlink:href="#DejaVuSans-6e" x="862.695312"/>
      <use xlink:href="#DejaVuSans-74" x="926.074219"/>
      <use xlink:href="#DejaVuSans-73" x="965.283203"/>
     </g>
    </g>
   </g>
   <g id="matplotlib.axis_2">
    <g id="ytick_1">
     <g id="line2d_11">
      <path d="M 57.6 295.488 
L 414.72 295.488 
" clip-path="url(#p6bbb4da697)" style="fill: none; stroke: #b0b0b0; stroke-width: 0.8; stroke-linecap: square"/>
     </g>
     <g id="line2d_12">
      <defs>
       <path id="m6318806870" d="M 0 0 
L -3.5 0 
" style="stroke: #000000; stroke-width: 0.8"/>
      </defs>
      <g>
       <use xlink:href="#m6318806870" x="57.6" y="295.488" style="stroke: #000000; stroke-width: 0.8"/>
      </g>
     </g>
     <g id="text_7">
      <!-- 0 -->
      <g transform="translate(44.2375 299.287219) scale(0.1 -0.1)">
       <use xlink:href="#DejaVuSans-30"/>
      </g>
     </g>
    </g>
    <g id="ytick_2">
     <g id="line2d_13">
      <path d="M 57.6 257.688 
L 414.72 257.688 
" clip-path="url(#p6bbb4da697)" style="fill: none; stroke: #b0b0b0; stroke-width: 0.8; stroke-linecap: square"/>
     </g>
     <g id="line2d_14">
      <g>
       <use xlink:href="#m6318806870" x="57.6" y="257.688" style="stroke: #000000; stroke-width: 0.8"/>
      </g>
     </g>
     <g id="text_8">
      <!-- 5 -->
      <g transform="translate(44.2375 261.487219) scale(0.1 -0.1)">
       <defs>
        <path id="DejaVuSans-35" d="M 691 4666 
L 3169 4666 
L 3169 4134 
L 1269 4134 
L 1269 2991 
Q 1406 3038 1543 3061 
Q 1681 3084 1819 3084 
Q 2600 3084 3056 2656 
Q 3513 2228 3513 1497 
Q 3513 744 3044 326 
Q 2575 -91 1722 -91 
Q 1428 -91 1123 -41 
Q 819 9 494 109 
L 494 744 
Q 775 591 1075 516 
Q 1375 441 1709 441 
Q 2250 441 2565 725 
Q 2881 1009 2881 1497 
Q 2881 1984 2565 2268 
Q 2250 2553 1709 2553 
Q 1456 2553 1204 2497 
Q 953 2441 691 2322 
L 691 4666 
z
" transform="scale(0.015625)"/>
       </defs>
       <use xlink:href="#DejaVuSans-35"/>
      </g>
     </g>
    </g>
    <g id="ytick_3">
     <g id="line2d_15">
      <path d="M 57.6 219.888 
L 414.72 219.888 
" clip-path="url(#p6bbb4da697)" style="fill: none; stroke: #b0b0b0; stroke-width: 0.8; stroke-linecap: square"/>
     </g>
     <g id="line2d_16">
      <g>
       <use xlink:href="#m6318806870" x="57.6" y="219.888" style="stroke: #000000; stroke-width: 0.8"/>
      </g>
     </g>
     <g id="text_9">
      <!-- 10 -->
      <g transform="translate(37.875 223.687219) scale(0.1 -0.1)">
       <use xlink:href="#DejaVuSans-31"/>
       <use xlink:href="#DejaVuSans-30" x="63.623047"/>
      </g>
     </g>
    </g>
    <g id="ytick_4">
     <g id="line2d_17">
      <path d="M 57.6 182.088 
L 414.72 182.088 
" clip-path="url(#p6bbb4da697)" style="fill: none; stroke: #b0b0b0; stroke-width: 0.8; stroke-linecap: square"/>
     </g>
     <g id="line2d_18">
      <g>
       <use xlink:href="#m6318806870" x="57.6" y="182.088" style="stroke: #000000; stroke-width: 0.8"/>
      </g>
     </g>
     <g id="text_10">
      <!-- 15 -->
      <g transform="translate(37.875 185.887219) scale(0.1 -0.1)">
       <use xlink:href="#DejaVuSans-31"/>
       <use xlink:href="#DejaVuSans-35" x="63.623047"/>
      </g>
     </g>
    </g>
    <g id="ytick_5">
     <g id="line2d_19">
      <path d="M 57.6 144.288 
L 414.72 144.288 
" clip-path="url(#p6bbb4da697)" style="fill: none; stroke: #b0b0b0; stroke-width: 0.8; stroke-linecap: square"/>
     </g>
     <g id="line2d_20">
      <g>
       <use xlink:href="#m6318806870" x="57.6" y="144.288" style="stroke: #000000; stroke-width: 0.8"/>
      </g>
     </g>
     <g id="text_11">
      <!-- 20 -->
      <g transform="translate(37.875 148.087219) scale(0.1 -0.1)">
       <use xlink:href="#DejaVuSans-32"/>
       <use xlink:href="#DejaVuSans-30" x="63.623047"/>
      </g>
     </g>
    </g>
    <g id="ytick_6">
     <g id="line2d_21">
      <path d="M 57.6 106.488 
L 414.72 106.488 
" clip-path="url(#p6bbb4da697)" style="fill: none; stroke: #b0b0b0; stroke-width: 0.8; stroke-linecap: square"/>
     </g>
     <g id="line2d_22">
      <g>
       <use xlink:href="#m6318806870" x="57.6" y="106.488" style="stroke: #000000; stroke-width: 0.8"/>
      </g>
     </g>
     <g id="text_12">
      <!-- 25 -->
      <g transform="translate(37.875 110.287219) scale(0.1 -0.1)">
       <use xlink:href="#DejaVuSans-32"/>
       <use xlink:href="#DejaVuSans-35" x="63.623047"/>
      </g>
     </g>
    </g>
    <g id="ytick_7">
     <g id="line2d_23">
      <path d="M 57.6 68.688 
L 414.72 68.688 
" clip-path="url(#p6bbb4da697)" style="fill: none; stroke: #b0b0b0; stroke-width: 0.8; stroke-linecap: square"/>
     </g>
     <g id="line2d_24">
      <g>
       <use xlink:href="#m6318806870" x="57.6" y="68.688" style="stroke: #000000; stroke-width: 0.8"/>
      </g>
     </g>
     <g id="text_13">
      <!-- 30 -->
      <g transform="translate(37.875 72.487219) scale(0.1 -0.1)">
       <defs>
        <path id="DejaVuSans-33" d="M 2597 2516 
Q 3050 2419 3304 2112 
Q 3559 1806 3559 1356 
Q 3559 666 3084 287 
Q 2609 -91 1734 -91 
Q 1441 -91 1130 -33 
Q 819 25 488 141 
L 488 750 
Q 750 597 1062 519 
Q 1375 441 1716 441 
Q 2309 441 2620 675 
Q 2931 909 2931 1356 
Q 2931 1769 2642 2001 
Q 2353 2234 1838 2234 
L 1294 2234 
L 1294 2753 
L 1863 2753 
Q 2328 2753 2575 2939 
Q 2822 3125 2822 3475 
Q 2822 3834 2567 4026 
Q 2313 4219 1838 4219 
Q 1578 4219 1281 4162 
Q 984 4106 628 3988 
L 628 4550 
Q 988 4650 1302 4700 
Q 1616 4750 1894 4750 
Q 2613 4750 3031 4423 
Q 3450 4097 3450 3541 
Q 3450 3153 3228 2886 
Q 3006 2619 2597 2516 
z
" transform="scale(0.015625)"/>
       </defs>
       <use xlink:href="#DejaVuSans-33"/>
       <use xlink:href="#DejaVuSans-30" x="63.623047"/>
      </g>
     </g>
    </g>
    <g id="text_14">
     <!-- Time -->
     <g transform="translate(31.795313 186.761594) rotate(-90) scale(0.1 -0.1)">
      <defs>
       <path id="DejaVuSans-54" d="M -19 4666 
L 3928 4666 
L 3928 4134 
L 2272 4134 
L 2272 0 
L 1638 0 
L 1638 4134 
L -19 4134 
L -19 4666 
z
" transform="scale(0.015625)"/>
       <path id="DejaVuSans-69" d="M 603 3500 
L 1178 3500 
L 1178 0 
L 603 0 
L 603 3500 
z
M 603 4863 
L 1178 4863 
L 1178 4134 
L 603 4134 
L 603 4863 
z
" transform="scale(0.015625)"/>
      </defs>
      <use xlink:href="#DejaVuSans-54"/>
      <use xlink:href="#DejaVuSans-69" x="57.958984"/>
      <use xlink:href="#DejaVuSans-6d" x="85.742188"/>
      <use xlink:href="#DejaVuSans-65" x="183.154297"/>
     </g>
    </g>
   </g>
   <g id="line2d_25">
    <path d="M 73.832727 287.928 
L 90.919809 274.1688 
L 108.00689 265.248 
L 125.093971 252.1692 
L 142.181053 240.5268 
L 159.268134 229.4892 
L 176.355215 217.8468 
L 193.442297 206.1288 
L 210.529378 193.05 
L 227.616459 184.1292 
L 244.703541 167.6484 
L 261.790622 160.7688 
L 278.877703 151.848 
L 295.964785 138.0888 
L 313.051866 123.6492 
L 330.138947 114.048 
L 347.226029 100.2888 
L 364.31311 81.7668 
L 381.400191 82.4472 
L 398.487273 53.568 
" clip-path="url(#p6bbb4da697)" style="fill: none; stroke: #1f77b4; stroke-width: 1.5; stroke-linecap: square"/>
    <defs>
     <path id="m767ff5aae1" d="M 0 3 
C 0.795609 3 1.55874 2.683901 2.12132 2.12132 
C 2.683901 1.55874 3 0.795609 3 0 
C 3 -0.795609 2.683901 -1.55874 2.12132 -2.12132 
C 1.55874 -2.683901 0.795609 -3 0 -3 
C -0.795609 -3 -1.55874 -2.683901 -2.12132 -2.12132 
C -2.683901 -1.55874 -3 -0.795609 -3 0 
C -3 0.795609 -2.683901 1.55874 -2.12132 2.12132 
C -1.55874 2.683901 -0.795609 3 0 3 
z
" style="stroke: #1f77b4"/>
    </defs>
    <g clip-path="url(#p6bbb4da697)">
     <use xlink:href="#m767ff5aae1" x="73.832727" y="287.928" style="fill: #1f77b4; stroke: #1f77b4"/>
     <use xlink:href="#m767ff5aae1" x="90.919809" y="274.1688" style="fill: #1f77b4; stroke: #1f77b4"/>
     <use xlink:href="#m767ff5aae1" x="108.00689" y="265.248" style="fill: #1f77b4; stroke: #1f77b4"/>
     <use xlink:href="#m767ff5aae1" x="125.093971" y="252.1692" style="fill: #1f77b4; stroke: #1f77b4"/>
     <use xlink:href="#m767ff5aae1" x="142.181053" y="240.5268" style="fill: #1f77b4; stroke: #1f77b4"/>
     <use xlink:href="#m767ff5aae1" x="159.268134" y="229.4892" style="fill: #1f77b4; stroke: #1f77b4"/>
     <use xlink:href="#m767ff5aae1" x="176.355215" y="217.8468" style="fill: #1f77b4; stroke: #1f77b4"/>
     <use xlink:href="#m767ff5aae1" x="193.442297" y="206.1288" style="fill: #1f77b4; stroke: #1f77b4"/>
     <use xlink:href="#m767ff5aae1" x="210.529378" y="193.05" style="fill: #1f77b4; stroke: #1f77b4"/>
     <use xlink:href="#m767ff5aae1" x="227.616459" y="184.1292" style="fill: #1f77b4; stroke: #1f77b4"/>
     <use xlink:href="#m767ff5aae1" x="244.703541" y="167.6484" style="fill: #1f77b4; stroke: #1f77b4"/>
     <use xlink:href="#m767ff5aae1" x="261.790622" y="160.7688" style="fill: #1f77b4; stroke: #1f77b4"/>
     <use xlink:href="#m767ff5aae1" x="278.877703" y="151.848" style="fill: #1f77b4; stroke: #1f77b4"/>
     <use xlink:href="#m767ff5aae1" x="295.964785" y="138.0888" style="fill: #1f77b4; stroke: #1f77b4"/>
     <use xlink:href="#m767ff5aae1" x="313.051866" y="123.6492" style="fill: #1f77b4; stroke: #1f77b4"/>
     <use xlink:href="#m767ff5aae1" x="330.138947" y="114.048" style="fill: #1f77b4; stroke: #1f77b4"/>
     <use xlink:href="#m767ff5aae1" x="347.226029" y="100.2888" style="fill: #1f77b4; stroke: #1f77b4"/>
     <use xlink:href="#m767ff5aae1" x="364.31311" y="81.7668" style="fill: #1f77b4; stroke: #1f77b4"/>
     <use xlink:href="#m767ff5aae1" x="381.400191" y="82.4472" style="fill: #1f77b4; stroke: #1f77b4"/>
     <use xlink:href="#m767ff5aae1" x="398.487273" y="53.568" style="fill: #1f77b4; stroke: #1f77b4"/>
    </g>
   </g>
   <g id="line2d_26">
    <path d="M 73.832727 287.928 
L 90.919809 272.808 
L 108.00689 265.248 
L 125.093971 252.1692 
L 142.181053 240.5268 
L 159.268134 229.4892 
L 176.355215 218.5272 
L 193.442297 206.8092 
L 210.529378 194.4864 
L 227.616459 183.4488 
L 244.703541 169.6896 
L 261.790622 163.566 
L 278.877703 148.446 
L 295.964785 138.7692 
L 313.051866 118.8864 
L 330.138947 108.5292 
L 347.226029 95.526 
L 364.31311 92.7288 
L 381.400191 72.846 
L 398.487273 69.3684 
" clip-path="url(#p6bbb4da697)" style="fill: none; stroke: #ff7f0e; stroke-width: 1.5; stroke-linecap: square"/>
    <defs>
     <path id="m53cf50e272" d="M 0 3 
C 0.795609 3 1.55874 2.683901 2.12132 2.12132 
C 2.683901 1.55874 3 0.795609 3 0 
C 3 -0.795609 2.683901 -1.55874 2.12132 -2.12132 
C 1.55874 -2.683901 0.795609 -3 0 -3 
C -0.795609 -3 -1.55874 -2.683901 -2.12132 -2.12132 
C -2.683901 -1.55874 -3 -0.795609 -3 0 
C -3 0.795609 -2.683901 1.55874 -2.12132 2.12132 
C -1.55874 2.683901 -0.795609 3 0 3 
z
" style="stroke: #ff7f0e"/>
    </defs>
    <g clip-path="url(#p6bbb4da697)">
     <use xlink:href="#m53cf50e272" x="73.832727" y="287.928" style="fill: #ff7f0e; stroke: #ff7f0e"/>
     <use xlink:href="#m53cf50e272" x="90.919809" y="272.808" style="fill: #ff7f0e; stroke: #ff7f0e"/>
     <use xlink:href="#m53cf50e272" x="108.00689" y="265.248" style="fill: #ff7f0e; stroke: #ff7f0e"/>
     <use xlink:href="#m53cf50e272" x="125.093971" y="252.1692" style="fill: #ff7f0e; stroke: #ff7f0e"/>
     <use xlink:href="#m53cf50e272" x="142.181053" y="240.5268" style="fill: #ff7f0e; stroke: #ff7f0e"/>
     <use xlink:href="#m53cf50e272" x="159.268134" y="229.4892" style="fill: #ff7f0e; stroke: #ff7f0e"/>
     <use xlink:href="#m53cf50e272" x="176.355215" y="218.5272" style="fill: #ff7f0e; stroke: #ff7f0e"/>
     <use xlink:href="#m53cf50e272" x="193.442297" y="206.8092" style="fill: #ff7f0e; stroke: #ff7f0e"/>
     <use xlink:href="#m53cf50e272" x="210.529378" y="194.4864" style="fill: #ff7f0e; stroke: #ff7f0e"/>
     <use xlink:href="#m53cf50e272" x="227.616459" y="183.4488" style="fill: #ff7f0e; stroke: #ff7f0e"/>
     <use xlink:href="#m53cf50e272" x="244.703541" y="169.6896" style="fill: #ff7f0e; stroke: #ff7f0e"/>
     <use xlink:href="#m53cf50e272" x="261.790622" y="163.566" style="fill: #ff7f0e; stroke: #ff7f0e"/>
     <use xlink:href="#m53cf50e272" x="278.877703" y="148.446" style="fill: #ff7f0e; stroke: #ff7f0e"/>
     <use xlink:href="#m53cf50e272" x="295.964785" y="138.7692" style="fill: #ff7f0e; stroke: #ff7f0e"/>
     <use xlink:href="#m53cf50e272" x="313.051866" y="118.8864" style="fill: #ff7f0e; stroke: #ff7f0e"/>
     <use xlink:href="#m53cf50e272" x="330.138947" y="108.5292" style="fill: #ff7f0e; stroke: #ff7f0e"/>
     <use xlink:href="#m53cf50e272" x="347.226029" y="95.526" style="fill: #ff7f0e; stroke: #ff7f0e"/>
     <use xlink:href="#m53cf50e272" x="364.31311" y="92.7288" style="fill: #ff7f0e; stroke: #ff7f0e"/>
     <use xlink:href="#m53cf50e272" x="381.400191" y="72.846" style="fill: #ff7f0e; stroke: #ff7f0e"/>
     <use xlink:href="#m53cf50e272" x="398.487273" y="69.3684" style="fill: #ff7f0e; stroke: #ff7f0e"/>
    </g>
   </g>
   <g id="line2d_27">
    <path d="M 73.832727 287.928 
L 90.919809 273.4884 
L 108.00689 265.248 
L 125.093971 253.53 
L 142.181053 242.568 
L 159.268134 232.2864 
L 176.355215 219.888 
L 193.442297 207.4896 
L 210.529378 195.8472 
L 227.616459 176.5692 
L 244.703541 164.9268 
L 261.790622 160.0884 
L 278.877703 151.848 
L 295.964785 140.13 
L 313.051866 124.3296 
L 330.138947 104.4468 
L 347.226029 104.4468 
L 364.31311 97.5672 
L 381.400191 83.1276 
L 398.487273 68.688 
" clip-path="url(#p6bbb4da697)" style="fill: none; stroke: #2ca02c; stroke-width: 1.5; stroke-linecap: square"/>
    <defs>
     <path id="m89d5968272" d="M 0 3 
C 0.795609 3 1.55874 2.683901 2.12132 2.12132 
C 2.683901 1.55874 3 0.795609 3 0 
C 3 -0.795609 2.683901 -1.55874 2.12132 -2.12132 
C 1.55874 -2.683901 0.795609 -3 0 -3 
C -0.795609 -3 -1.55874 -2.683901 -2.12132 -2.12132 
C -2.683901 -1.55874 -3 -0.795609 -3 0 
C -3 0.795609 -2.683901 1.55874 -2.12132 2.12132 
C -1.55874 2.683901 -0.795609 3 0 3 
z
" style="stroke: #2ca02c"/>
    </defs>
    <g clip-path="url(#p6bbb4da697)">
     <use xlink:href="#m89d5968272" x="73.832727" y="287.928" style="fill: #2ca02c; stroke: #2ca02c"/>
     <use xlink:href="#m89d5968272" x="90.919809" y="273.4884" style="fill: #2ca02c; stroke: #2ca02c"/>
     <use xlink:href="#m89d5968272" x="108.00689" y="265.248" style="fill: #2ca02c; stroke: #2ca02c"/>
     <use xlink:href="#m89d5968272" x="125.093971" y="253.53" style="fill: #2ca02c; stroke: #2ca02c"/>
     <use xlink:href="#m89d5968272" x="142.181053" y="242.568" style="fill: #2ca02c; stroke: #2ca02c"/>
     <use xlink:href="#m89d5968272" x="159.268134" y="232.2864" style="fill: #2ca02c; stroke: #2ca02c"/>
     <use xlink:href="#m89d5968272" x="176.355215" y="219.888" style="fill: #2ca02c; stroke: #2ca02c"/>
     <use xlink:href="#m89d5968272" x="193.442297" y="207.4896" style="fill: #2ca02c; stroke: #2ca02c"/>
     <use xlink:href="#m89d5968272" x="210.529378" y="195.8472" style="fill: #2ca02c; stroke: #2ca02c"/>
     <use xlink:href="#m89d5968272" x="227.616459" y="176.5692" style="fill: #2ca02c; stroke: #2ca02c"/>
     <use xlink:href="#m89d5968272" x="244.703541" y="164.9268" style="fill: #2ca02c; stroke: #2ca02c"/>
     <use xlink:href="#m89d5968272" x="261.790622" y="160.0884" style="fill: #2ca02c; stroke: #2ca02c"/>
     <use xlink:href="#m89d5968272" x="278.877703" y="151.848" style="fill: #2ca02c; stroke: #2ca02c"/>
     <use xlink:href="#m89d5968272" x="295.964785" y="140.13" style="fill: #2ca02c; stroke: #2ca02c"/>
     <use xlink:href="#m89d5968272" x="313.051866" y="124.3296" style="fill: #2ca02c; stroke: #2ca02c"/>
     <use xlink:href="#m89d5968272" x="330.138947" y="104.4468" style="fill: #2ca02c; stroke: #2ca02c"/>
     <use xlink:href="#m89d5968272" x="347.226029" y="104.4468" style="fill: #2ca02c; stroke: #2ca02c"/>
     <use xlink:href="#m89d5968272" x="364.31311" y="97.5672" style="fill: #2ca02c; stroke: #2ca02c"/>
     <use xlink:href="#m89d5968272" x="381.400191" y="83.1276" style="fill: #2ca02c; stroke: #2ca02c"/>
     <use xlink:href="#m89d5968272" x="398.487273" y="68.688" style="fill: #2ca02c; stroke: #2ca02c"/>
    </g>
   </g>
   <g id="line2d_28">
    <path d="M 73.832727 286.5672 
L 90.919809 280.368 
L 108.00689 271.4472 
L 125.093971 264.5676 
L 142.181053 255.6468 
L 159.268134 248.0868 
L 176.355215 235.008 
L 193.442297 226.0872 
L 210.529378 219.888 
L 227.616459 208.17 
L 244.703541 200.61 
L 261.790622 183.4488 
L 278.877703 182.7684 
L 295.964785 169.0092 
L 313.051866 164.2464 
L 330.138947 157.3668 
L 347.226029 149.1264 
L 364.31311 131.8896 
L 381.400191 132.57 
L 398.487273 117.45 
" clip-path="url(#p6bbb4da697)" style="fill: none; stroke: #d62728; stroke-width: 1.5; stroke-linecap: square"/>
    <defs>
     <path id="m01be73fb68" d="M 0 3 
C 0.795609 3 1.55874 2.683901 2.12132 2.12132 
C 2.683901 1.55874 3 0.795609 3 0 
C 3 -0.795609 2.683901 -1.55874 2.12132 -2.12132 
C 1.55874 -2.683901 0.795609 -3 0 -3 
C -0.795609 -3 -1.55874 -2.683901 -2.12132 -2.12132 
C -2.683901 -1.55874 -3 -0.795609 -3 0 
C -3 0.795609 -2.683901 1.55874 -2.12132 2.12132 
C -1.55874 2.683901 -0.795609 3 0 3 
z
" style="stroke: #d62728"/>
    </defs>
    <g clip-path="url(#p6bbb4da697)">
     <use xlink:href="#m01be73fb68" x="73.832727" y="286.5672" style="fill: #d62728; stroke: #d62728"/>
     <use xlink:href="#m01be73fb68" x="90.919809" y="280.368" style="fill: #d62728; stroke: #d62728"/>
     <use xlink:href="#m01be73fb68" x="108.00689" y="271.4472" style="fill: #d62728; stroke: #d62728"/>
     <use xlink:href="#m01be73fb68" x="125.093971" y="264.5676" style="fill: #d62728; stroke: #d62728"/>
     <use xlink:href="#m01be73fb68" x="142.181053" y="255.6468" style="fill: #d62728; stroke: #d62728"/>
     <use xlink:href="#m01be73fb68" x="159.268134" y="248.0868" style="fill: #d62728; stroke: #d62728"/>
     <use xlink:href="#m01be73fb68" x="176.355215" y="235.008" style="fill: #d62728; stroke: #d62728"/>
     <use xlink:href="#m01be73fb68" x="193.442297" y="226.0872" style="fill: #d62728; stroke: #d62728"/>
     <use xlink:href="#m01be73fb68" x="210.529378" y="219.888" style="fill: #d62728; stroke: #d62728"/>
     <use xlink:href="#m01be73fb68" x="227.616459" y="208.17" style="fill: #d62728; stroke: #d62728"/>
     <use xlink:href="#m01be73fb68" x="244.703541" y="200.61" style="fill: #d62728; stroke: #d62728"/>
     <use xlink:href="#m01be73fb68" x="261.790622" y="183.4488" style="fill: #d62728; stroke: #d62728"/>
     <use xlink:href="#m01be73fb68" x="278.877703" y="182.7684" style="fill: #d62728; stroke: #d62728"/>
     <use xlink:href="#m01be73fb68" x="295.964785" y="169.0092" style="fill: #d62728; stroke: #d62728"/>
     <use xlink:href="#m01be73fb68" x="313.051866" y="164.2464" style="fill: #d62728; stroke: #d62728"/>
     <use xlink:href="#m01be73fb68" x="330.138947" y="157.3668" style="fill: #d62728; stroke: #d62728"/>
     <use xlink:href="#m01be73fb68" x="347.226029" y="149.1264" style="fill: #d62728; stroke: #d62728"/>
     <use xlink:href="#m01be73fb68" x="364.31311" y="131.8896" style="fill: #d62728; stroke: #d62728"/>
     <use xlink:href="#m01be73fb68" x="381.400191" y="132.57" style="fill: #d62728; stroke: #d62728"/>
     <use xlink:href="#m01be73fb68" x="398.487273" y="117.45" style="fill: #d62728; stroke: #d62728"/>
    </g>
   </g>
   <g id="line2d_29">
    <path d="M 73.832727 287.928 
L 90.919809 280.368 
L 108.00689 272.1276 
L 125.093971 264.5676 
L 142.181053 254.9664 
L 159.268134 243.9288 
L 176.355215 235.008 
L 193.442297 226.7676 
L 210.529378 219.2076 
L 227.616459 210.9672 
L 244.703541 201.366 
L 261.790622 195.8472 
L 278.877703 182.7684 
L 295.964785 171.8064 
L 313.051866 162.1296 
L 330.138947 155.25 
L 347.226029 143.6076 
L 364.31311 142.9272 
L 381.400191 131.8896 
L 398.487273 116.7696 
" clip-path="url(#p6bbb4da697)" style="fill: none; stroke: #9467bd; stroke-width: 1.5; stroke-linecap: square"/>
    <defs>
     <path id="me75e75b63c" d="M 0 3 
C 0.795609 3 1.55874 2.683901 2.12132 2.12132 
C 2.683901 1.55874 3 0.795609 3 0 
C 3 -0.795609 2.683901 -1.55874 2.12132 -2.12132 
C 1.55874 -2.683901 0.795609 -3 0 -3 
C -0.795609 -3 -1.55874 -2.683901 -2.12132 -2.12132 
C -2.683901 -1.55874 -3 -0.795609 -3 0 
C -3 0.795609 -2.683901 1.55874 -2.12132 2.12132 
C -1.55874 2.683901 -0.795609 3 0 3 
z
" style="stroke: #9467bd"/>
    </defs>
    <g clip-path="url(#p6bbb4da697)">
     <use xlink:href="#me75e75b63c" x="73.832727" y="287.928" style="fill: #9467bd; stroke: #9467bd"/>
     <use xlink:href="#me75e75b63c" x="90.919809" y="280.368" style="fill: #9467bd; stroke: #9467bd"/>
     <use xlink:href="#me75e75b63c" x="108.00689" y="272.1276" style="fill: #9467bd; stroke: #9467bd"/>
     <use xlink:href="#me75e75b63c" x="125.093971" y="264.5676" style="fill: #9467bd; stroke: #9467bd"/>
     <use xlink:href="#me75e75b63c" x="142.181053" y="254.9664" style="fill: #9467bd; stroke: #9467bd"/>
     <use xlink:href="#me75e75b63c" x="159.268134" y="243.9288" style="fill: #9467bd; stroke: #9467bd"/>
     <use xlink:href="#me75e75b63c" x="176.355215" y="235.008" style="fill: #9467bd; stroke: #9467bd"/>
     <use xlink:href="#me75e75b63c" x="193.442297" y="226.7676" style="fill: #9467bd; stroke: #9467bd"/>
     <use xlink:href="#me75e75b63c" x="210.529378" y="219.2076" style="fill: #9467bd; stroke: #9467bd"/>
     <use xlink:href="#me75e75b63c" x="227.616459" y="210.9672" style="fill: #9467bd; stroke: #9467bd"/>
     <use xlink:href="#me75e75b63c" x="244.703541" y="201.366" style="fill: #9467bd; stroke: #9467bd"/>
     <use xlink:href="#me75e75b63c" x="261.790622" y="195.8472" style="fill: #9467bd; stroke: #9467bd"/>
     <use xlink:href="#me75e75b63c" x="278.877703" y="182.7684" style="fill: #9467bd; stroke: #9467bd"/>
     <use xlink:href="#me75e75b63c" x="295.964785" y="171.8064" style="fill: #9467bd; stroke: #9467bd"/>
     <use xlink:href="#me75e75b63c" x="313.051866" y="162.1296" style="fill: #9467bd; stroke: #9467bd"/>
     <use xlink:href="#me75e75b63c" x="330.138947" y="155.25" style="fill: #9467bd; stroke: #9467bd"/>
     <use xlink:href="#me75e75b63c" x="347.226029" y="143.6076" style="fill: #9467bd; stroke: #9467bd"/>
     <use xlink:href="#me75e75b63c" x="364.31311" y="142.9272" style="fill: #9467bd; stroke: #9467bd"/>
     <use xlink:href="#me75e75b63c" x="381.400191" y="131.8896" style="fill: #9467bd; stroke: #9467bd"/>
     <use xlink:href="#me75e75b63c" x="398.487273" y="116.7696" style="fill: #9467bd; stroke: #9467bd"/>
    </g>
   </g>
   <g id="line2d_30">
    <path d="M 73.832727 295.488 
L 90.919809 294.1272 
L 108.00689 287.928 
L 125.093971 287.2476 
L 142.181053 287.928 
L 159.268134 281.0484 
L 176.355215 280.368 
L 193.442297 280.368 
L 210.529378 274.8492 
L 227.616459 272.808 
L 244.703541 272.808 
L 261.790622 269.406 
L 278.877703 265.248 
L 295.964785 265.248 
L 313.051866 260.4096 
L 330.138947 257.688 
L 347.226029 257.0076 
L 364.31311 253.53 
L 381.400191 248.0868 
L 398.487273 249.4476 
" clip-path="url(#p6bbb4da697)" style="fill: none; stroke: #8c564b; stroke-width: 1.5; stroke-linecap: square"/>
    <defs>
     <path id="m30e57b7d52" d="M 0 3 
C 0.795609 3 1.55874 2.683901 2.12132 2.12132 
C 2.683901 1.55874 3 0.795609 3 0 
C 3 -0.795609 2.683901 -1.55874 2.12132 -2.12132 
C 1.55874 -2.683901 0.795609 -3 0 -3 
C -0.795609 -3 -1.55874 -2.683901 -2.12132 -2.12132 
C -2.683901 -1.55874 -3 -0.795609 -3 0 
C -3 0.795609 -2.683901 1.55874 -2.12132 2.12132 
C -1.55874 2.683901 -0.795609 3 0 3 
z
" style="stroke: #8c564b"/>
    </defs>
    <g clip-path="url(#p6bbb4da697)">
     <use xlink:href="#m30e57b7d52" x="73.832727" y="295.488" style="fill: #8c564b; stroke: #8c564b"/>
     <use xlink:href="#m30e57b7d52" x="90.919809" y="294.1272" style="fill: #8c564b; stroke: #8c564b"/>
     <use xlink:href="#m30e57b7d52" x="108.00689" y="287.928" style="fill: #8c564b; stroke: #8c564b"/>
     <use xlink:href="#m30e57b7d52" x="125.093971" y="287.2476" style="fill: #8c564b; stroke: #8c564b"/>
     <use xlink:href="#m30e57b7d52" x="142.181053" y="287.928" style="fill: #8c564b; stroke: #8c564b"/>
     <use xlink:href="#m30e57b7d52" x="159.268134" y="281.0484" style="fill: #8c564b; stroke: #8c564b"/>
     <use xlink:href="#m30e57b7d52" x="176.355215" y="280.368" style="fill: #8c564b; stroke: #8c564b"/>
     <use xlink:href="#m30e57b7d52" x="193.442297" y="280.368" style="fill: #8c564b; stroke: #8c564b"/>
     <use xlink:href="#m30e57b7d52" x="210.529378" y="274.8492" style="fill: #8c564b; stroke: #8c564b"/>
     <use xlink:href="#m30e57b7d52" x="227.616459" y="272.808" style="fill: #8c564b; stroke: #8c564b"/>
     <use xlink:href="#m30e57b7d52" x="244.703541" y="272.808" style="fill: #8c564b; stroke: #8c564b"/>
     <use xlink:href="#m30e57b7d52" x="261.790622" y="269.406" style="fill: #8c564b; stroke: #8c564b"/>
     <use xlink:href="#m30e57b7d52" x="278.877703" y="265.248" style="fill: #8c564b; stroke: #8c564b"/>
     <use xlink:href="#m30e57b7d52" x="295.964785" y="265.248" style="fill: #8c564b; stroke: #8c564b"/>
     <use xlink:href="#m30e57b7d52" x="313.051866" y="260.4096" style="fill: #8c564b; stroke: #8c564b"/>
     <use xlink:href="#m30e57b7d52" x="330.138947" y="257.688" style="fill: #8c564b; stroke: #8c564b"/>
     <use xlink:href="#m30e57b7d52" x="347.226029" y="257.0076" style="fill: #8c564b; stroke: #8c564b"/>
     <use xlink:href="#m30e57b7d52" x="364.31311" y="253.53" style="fill: #8c564b; stroke: #8c564b"/>
     <use xlink:href="#m30e57b7d52" x="381.400191" y="248.0868" style="fill: #8c564b; stroke: #8c564b"/>
     <use xlink:href="#m30e57b7d52" x="398.487273" y="249.4476" style="fill: #8c564b; stroke: #8c564b"/>
    </g>
   </g>
   <g id="patch_3">
    <path d="M 57.6 307.584 
L 57.6 41.472 
" style="fill: none; stroke: #000000; stroke-width: 0.8; stroke-linejoin: miter; stroke-linecap: square"/>
   </g>
   <g id="patch_4">
    <path d="M 414.72 307.584 
L 414.72 41.472 
" style="fill: none; stroke: #000000; stroke-width: 0.8; stroke-linejoin: miter; stroke-linecap: square"/>
   </g>
   <g id="patch_5">
    <path d="M 57.6 307.584 
L 414.72 307.584 
" style="fill: none; stroke: #000000; stroke-width: 0.8; stroke-linejoin: miter; stroke-linecap: square"/>
   </g>
   <g id="patch_6">
    <path d="M 57.6 41.472 
L 414.72 41.472 
" style="fill: none; stroke: #000000; stroke-width: 0.8; stroke-linejoin: miter; stroke-linecap: square"/>
   </g>
   <g id="text_15">
    <!-- Graph 1 -->
    <g transform="translate(212.031563 35.472) scale(0.12 -0.12)">
     <defs>
      <path id="DejaVuSans-47" d="M 3809 666 
L 3809 1919 
L 2778 1919 
L 2778 2438 
L 4434 2438 
L 4434 434 
Q 4069 175 3628 42 
Q 3188 -91 2688 -91 
Q 1594 -91 976 548 
Q 359 1188 359 2328 
Q 359 3472 976 4111 
Q 1594 4750 2688 4750 
Q 3144 4750 3555 4637 
Q 3966 4525 4313 4306 
L 4313 3634 
Q 3963 3931 3569 4081 
Q 3175 4231 2741 4231 
Q 1884 4231 1454 3753 
Q 1025 3275 1025 2328 
Q 1025 1384 1454 906 
Q 1884 428 2741 428 
Q 3075 428 3337 486 
Q 3600 544 3809 666 
z
" transform="scale(0.015625)"/>
      <path id="DejaVuSans-72" d="M 2631 2963 
Q 2534 3019 2420 3045 
Q 2306 3072 2169 3072 
Q 1681 3072 1420 2755 
Q 1159 2438 1159 1844 
L 1159 0 
L 581 0 
L 581 3500 
L 1159 3500 
L 1159 2956 
Q 1341 3275 1631 3429 
Q 1922 3584 2338 3584 
Q 2397 3584 2469 3576 
Q 2541 3569 2628 3553 
L 2631 2963 
z
" transform="scale(0.015625)"/>
      <path id="DejaVuSans-61" d="M 2194 1759 
Q 1497 1759 1228 1600 
Q 959 1441 959 1056 
Q 959 750 1161 570 
Q 1363 391 1709 391 
Q 2188 391 2477 730 
Q 2766 1069 2766 1631 
L 2766 1759 
L 2194 1759 
z
M 3341 1997 
L 3341 0 
L 2766 0 
L 2766 531 
Q 2569 213 2275 61 
Q 1981 -91 1556 -91 
Q 1019 -91 701 211 
Q 384 513 384 1019 
Q 384 1609 779 1909 
Q 1175 2209 1959 2209 
L 2766 2209 
L 2766 2266 
Q 2766 2663 2505 2880 
Q 2244 3097 1772 3097 
Q 1472 3097 1187 3025 
Q 903 2953 641 2809 
L 641 3341 
Q 956 3463 1253 3523 
Q 1550 3584 1831 3584 
Q 2591 3584 2966 3190 
Q 3341 2797 3341 1997 
z
" transform="scale(0.015625)"/>
      <path id="DejaVuSans-70" d="M 1159 525 
L 1159 -1331 
L 581 -1331 
L 581 3500 
L 1159 3500 
L 1159 2969 
Q 1341 3281 1617 3432 
Q 1894 3584 2278 3584 
Q 2916 3584 3314 3078 
Q 3713 2572 3713 1747 
Q 3713 922 3314 415 
Q 2916 -91 2278 -91 
Q 1894 -91 1617 61 
Q 1341 213 1159 525 
z
M 3116 1747 
Q 3116 2381 2855 2742 
Q 2594 3103 2138 3103 
Q 1681 3103 1420 2742 
Q 1159 2381 1159 1747 
Q 1159 1113 1420 752 
Q 1681 391 2138 391 
Q 2594 391 2855 752 
Q 3116 1113 3116 1747 
z
" transform="scale(0.015625)"/>
      <path id="DejaVuSans-68" d="M 3513 2113 
L 3513 0 
L 2938 0 
L 2938 2094 
Q 2938 2591 2744 2837 
Q 2550 3084 2163 3084 
Q 1697 3084 1428 2787 
Q 1159 2491 1159 1978 
L 1159 0 
L 581 0 
L 581 4863 
L 1159 4863 
L 1159 2956 
Q 1366 3272 1645 3428 
Q 1925 3584 2291 3584 
Q 2894 3584 3203 3211 
Q 3513 2838 3513 2113 
z
" transform="scale(0.015625)"/>
     </defs>
     <use xlink:href="#DejaVuSans-47"/>
     <use xlink:href="#DejaVuSans-72" x="77.490234"/>
     <use xlink:href="#DejaVuSans-61" x="118.603516"/>
     <use xlink:href="#DejaVuSans-70" x="179.882812"/>
     <use xlink:href="#DejaVuSans-68" x="243.359375"/>
     <use xlink:href="#DejaVuSans-20" x="306.738281"/>
     <use xlink:href="#DejaVuSans-31" x="338.525391"/>
    </g>
   </g>
   <g id="legend_1">
    <g id="patch_7">
     <path d="M 64.6 139.2095 
L 203.50625 139.2095 
Q 205.50625 139.2095 205.50625 137.2095 
L 205.50625 48.472 
Q 205.50625 46.472 203.50625 46.472 
L 64.6 46.472 
Q 62.6 46.472 62.6 48.472 
L 62.6 137.2095 
Q 62.6 139.2095 64.6 139.2095 
z
" style="fill: #ffffff; opacity: 0.8; stroke: #cccccc; stroke-linejoin: miter"/>
    </g>
    <g id="line2d_31">
     <path d="M 66.6 54.570438 
L 76.6 54.570438 
L 86.6 54.570438 
" style="fill: none; stroke: #1f77b4; stroke-width: 1.5; stroke-linecap: square"/>
     <g>
      <use xlink:href="#m767ff5aae1" x="76.6" y="54.570438" style="fill: #1f77b4; stroke: #1f77b4"/>
     </g>
    </g>
    <g id="text_16">
     <!-- data_sorted_O0_a.txt -->
     <g transform="translate(94.6 58.070438) scale(0.1 -0.1)">
      <defs>
       <path id="DejaVuSans-64" d="M 2906 2969 
L 2906 4863 
L 3481 4863 
L 3481 0 
L 2906 0 
L 2906 525 
Q 2725 213 2448 61 
Q 2172 -91 1784 -91 
Q 1150 -91 751 415 
Q 353 922 353 1747 
Q 353 2572 751 3078 
Q 1150 3584 1784 3584 
Q 2172 3584 2448 3432 
Q 2725 3281 2906 2969 
z
M 947 1747 
Q 947 1113 1208 752 
Q 1469 391 1925 391 
Q 2381 391 2643 752 
Q 2906 1113 2906 1747 
Q 2906 2381 2643 2742 
Q 2381 3103 1925 3103 
Q 1469 3103 1208 2742 
Q 947 2381 947 1747 
z
" transform="scale(0.015625)"/>
       <path id="DejaVuSans-5f" d="M 3263 -1063 
L 3263 -1509 
L -63 -1509 
L -63 -1063 
L 3263 -1063 
z
" transform="scale(0.015625)"/>
       <path id="DejaVuSans-4f" d="M 2522 4238 
Q 1834 4238 1429 3725 
Q 1025 3213 1025 2328 
Q 1025 1447 1429 934 
Q 1834 422 2522 422 
Q 3209 422 3611 934 
Q 4013 1447 4013 2328 
Q 4013 3213 3611 3725 
Q 3209 4238 2522 4238 
z
M 2522 4750 
Q 3503 4750 4090 4092 
Q 4678 3434 4678 2328 
Q 4678 1225 4090 567 
Q 3503 -91 2522 -91 
Q 1538 -91 948 565 
Q 359 1222 359 2328 
Q 359 3434 948 4092 
Q 1538 4750 2522 4750 
z
" transform="scale(0.015625)"/>
       <path id="DejaVuSans-2e" d="M 684 794 
L 1344 794 
L 1344 0 
L 684 0 
L 684 794 
z
" transform="scale(0.015625)"/>
       <path id="DejaVuSans-78" d="M 3513 3500 
L 2247 1797 
L 3578 0 
L 2900 0 
L 1881 1375 
L 863 0 
L 184 0 
L 1544 1831 
L 300 3500 
L 978 3500 
L 1906 2253 
L 2834 3500 
L 3513 3500 
z
" transform="scale(0.015625)"/>
      </defs>
      <use xlink:href="#DejaVuSans-64"/>
      <use xlink:href="#DejaVuSans-61" x="63.476562"/>
      <use xlink:href="#DejaVuSans-74" x="124.755859"/>
      <use xlink:href="#DejaVuSans-61" x="163.964844"/>
      <use xlink:href="#DejaVuSans-5f" x="225.244141"/>
      <use xlink:href="#DejaVuSans-73" x="275.244141"/>
      <use xlink:href="#DejaVuSans-6f" x="327.34375"/>
      <use xlink:href="#DejaVuSans-72" x="388.525391"/>
      <use xlink:href="#DejaVuSans-74" x="429.638672"/>
      <use xlink:href="#DejaVuSans-65" x="468.847656"/>
      <use xlink:href="#DejaVuSans-64" x="530.371094"/>
      <use xlink:href="#DejaVuSans-5f" x="593.847656"/>
      <use xlink:href="#DejaVuSans-4f" x="643.847656"/>
      <use xlink:href="#DejaVuSans-30" x="722.558594"/>
      <use xlink:href="#DejaVuSans-5f" x="786.181641"/>
      <use xlink:href="#DejaVuSans-61" x="836.181641"/>
      <use xlink:href="#DejaVuSans-2e" x="897.460938"/>
      <use xlink:href="#DejaVuSans-74" x="929.248047"/>
      <use xlink:href="#DejaVuSans-78" x="968.457031"/>
      <use xlink:href="#DejaVuSans-74" x="1027.636719"/>
     </g>
    </g>
    <g id="line2d_32">
     <path d="M 66.6 69.526688 
L 76.6 69.526688 
L 86.6 69.526688 
" style="fill: none; stroke: #ff7f0e; stroke-width: 1.5; stroke-linecap: square"/>
     <g>
      <use xlink:href="#m53cf50e272" x="76.6" y="69.526688" style="fill: #ff7f0e; stroke: #ff7f0e"/>
     </g>
    </g>
    <g id="text_17">
     <!-- data_sorted_O0_b.txt -->
     <g transform="translate(94.6 73.026688) scale(0.1 -0.1)">
      <defs>
       <path id="DejaVuSans-62" d="M 3116 1747 
Q 3116 2381 2855 2742 
Q 2594 3103 2138 3103 
Q 1681 3103 1420 2742 
Q 1159 2381 1159 1747 
Q 1159 1113 1420 752 
Q 1681 391 2138 391 
Q 2594 391 2855 752 
Q 3116 1113 3116 1747 
z
M 1159 2969 
Q 1341 3281 1617 3432 
Q 1894 3584 2278 3584 
Q 2916 3584 3314 3078 
Q 3713 2572 3713 1747 
Q 3713 922 3314 415 
Q 2916 -91 2278 -91 
Q 1894 -91 1617 61 
Q 1341 213 1159 525 
L 1159 0 
L 581 0 
L 581 4863 
L 1159 4863 
L 1159 2969 
z
" transform="scale(0.015625)"/>
      </defs>
      <use xlink:href="#DejaVuSans-64"/>
      <use xlink:href="#DejaVuSans-61" x="63.476562"/>
      <use xlink:href="#DejaVuSans-74" x="124.755859"/>
      <use xlink:href="#DejaVuSans-61" x="163.964844"/>
      <use xlink:href="#DejaVuSans-5f" x="225.244141"/>
      <use xlink:href="#DejaVuSans-73" x="275.244141"/>
      <use xlink:href="#DejaVuSans-6f" x="327.34375"/>
      <use xlink:href="#DejaVuSans-72" x="388.525391"/>
      <use xlink:href="#DejaVuSans-74" x="429.638672"/>
      <use xlink:href="#DejaVuSans-65" x="468.847656"/>
      <use xlink:href="#DejaVuSans-64" x="530.371094"/>
      <use xlink:href="#DejaVuSans-5f" x="593.847656"/>
      <use xlink:href="#DejaVuSans-4f" x="643.847656"/>
      <use xlink:href="#DejaVuSans-30" x="722.558594"/>
      <use xlink:href="#DejaVuSans-5f" x="786.181641"/>
      <use xlink:href="#DejaVuSans-62" x="836.181641"/>
      <use xlink:href="#DejaVuSans-2e" x="899.658203"/>
      <use xlink:href="#DejaVuSans-74" x="931.445312"/>
      <use xlink:href="#DejaVuSans-78" x="970.654297"/>
      <use xlink:href="#DejaVuSans-74" x="1029.833984"/>
     </g>
    </g>
    <g id="line2d_33">
     <path d="M 66.6 84.482938 
L 76.6 84.482938 
L 86.6 84.482938 
" style="fill: none; stroke: #2ca02c; stroke-width: 1.5; stroke-linecap: square"/>
     <g>
      <use xlink:href="#m89d5968272" x="76.6" y="84.482938" style="fill: #2ca02c; stroke: #2ca02c"/>
     </g>
    </g>
    <g id="text_18">
     <!-- data_sorted_O0_c.txt -->
     <g transform="translate(94.6 87.982938) scale(0.1 -0.1)">
      <defs>
       <path id="DejaVuSans-63" d="M 3122 3366 
L 3122 2828 
Q 2878 2963 2633 3030 
Q 2388 3097 2138 3097 
Q 1578 3097 1268 2742 
Q 959 2388 959 1747 
Q 959 1106 1268 751 
Q 1578 397 2138 397 
Q 2388 397 2633 464 
Q 2878 531 3122 666 
L 3122 134 
Q 2881 22 2623 -34 
Q 2366 -91 2075 -91 
Q 1284 -91 818 406 
Q 353 903 353 1747 
Q 353 2603 823 3093 
Q 1294 3584 2113 3584 
Q 2378 3584 2631 3529 
Q 2884 3475 3122 3366 
z
" transform="scale(0.015625)"/>
      </defs>
      <use xlink:href="#DejaVuSans-64"/>
      <use xlink:href="#DejaVuSans-61" x="63.476562"/>
      <use xlink:href="#DejaVuSans-74" x="124.755859"/>
      <use xlink:href="#DejaVuSans-61" x="163.964844"/>
      <use xlink:href="#DejaVuSans-5f" x="225.244141"/>
      <use xlink:href="#DejaVuSans-73" x="275.244141"/>
      <use xlink:href="#DejaVuSans-6f" x="327.34375"/>
      <use xlink:href="#DejaVuSans-72" x="388.525391"/>
      <use xlink:href="#DejaVuSans-74" x="429.638672"/>
      <use xlink:href="#DejaVuSans-65" x="468.847656"/>
      <use xlink:href="#DejaVuSans-64" x="530.371094"/>
      <use xlink:href="#DejaVuSans-5f" x="593.847656"/>
      <use xlink:href="#DejaVuSans-4f" x="643.847656"/>
      <use xlink:href="#DejaVuSans-30" x="722.558594"/>
      <use xlink:href="#DejaVuSans-5f" x="786.181641"/>
      <use xlink:href="#DejaVuSans-63" x="836.181641"/>
      <use xlink:href="#DejaVuSans-2e" x="891.162109"/>
      <use xlink:href="#DejaVuSans-74" x="922.949219"/>
      <use xlink:href="#DejaVuSans-78" x="962.158203"/>
      <use xlink:href="#DejaVuSans-74" x="1021.337891"/>
     </g>
    </g>
    <g id="line2d_34">
     <path d="M 66.6 99.439188 
L 76.6 99.439188 
L 86.6 99.439188 
" style="fill: none; stroke: #d62728; stroke-width: 1.5; stroke-linecap: square"/>
     <g>
      <use xlink:href="#m01be73fb68" x="76.6" y="99.439188" style="fill: #d62728; stroke: #d62728"/>
     </g>
    </g>
    <g id="text_19">
     <!-- data_sorted_O2_a.txt -->
     <g transform="translate(94.6 102.939188) scale(0.1 -0.1)">
      <use xlink:href="#DejaVuSans-64"/>
      <use xlink:href="#DejaVuSans-61" x="63.476562"/>
      <use xlink:href="#DejaVuSans-74" x="124.755859"/>
      <use xlink:href="#DejaVuSans-61" x="163.964844"/>
      <use xlink:href="#DejaVuSans-5f" x="225.244141"/>
      <use xlink:href="#DejaVuSans-73" x="275.244141"/>
      <use xlink:href="#DejaVuSans-6f" x="327.34375"/>
      <use xlink:href="#DejaVuSans-72" x="388.525391"/>
      <use xlink:href="#DejaVuSans-74" x="429.638672"/>
      <use xlink:href="#DejaVuSans-65" x="468.847656"/>
      <use xlink:href="#DejaVuSans-64" x="530.371094"/>
      <use xlink:href="#DejaVuSans-5f" x="593.847656"/>
      <use xlink:href="#DejaVuSans-4f" x="643.847656"/>
      <use xlink:href="#DejaVuSans-32" x="722.558594"/>
      <use xlink:href="#DejaVuSans-5f" x="786.181641"/>
      <use xlink:href="#DejaVuSans-61" x="836.181641"/>
      <use xlink:href="#DejaVuSans-2e" x="897.460938"/>
      <use xlink:href="#DejaVuSans-74" x="929.248047"/>
      <use xlink:href="#DejaVuSans-78" x="968.457031"/>
      <use xlink:href="#DejaVuSans-74" x="1027.636719"/>
     </g>
    </g>
    <g id="line2d_35">
     <path d="M 66.6 114.395438 
L 76.6 114.395438 
L 86.6 114.395438 
" style="fill: none; stroke: #9467bd; stroke-width: 1.5; stroke-linecap: square"/>
     <g>
      <use xlink:href="#me75e75b63c" x="76.6" y="114.395438" style="fill: #9467bd; stroke: #9467bd"/>
     </g>
    </g>
    <g id="text_20">
     <!-- data_sorted_O2_b.txt -->
     <g transform="translate(94.6 117.895438) scale(0.1 -0.1)">
      <use xlink:href="#DejaVuSans-64"/>
      <use xlink:href="#DejaVuSans-61" x="63.476562"/>
      <use xlink:href="#DejaVuSans-74" x="124.755859"/>
      <use xlink:href="#DejaVuSans-61" x="163.964844"/>
      <use xlink:href="#DejaVuSans-5f" x="225.244141"/>
      <use xlink:href="#DejaVuSans-73" x="275.244141"/>
      <use xlink:href="#DejaVuSans-6f" x="327.34375"/>
      <use xlink:href="#DejaVuSans-72" x="388.525391"/>
      <use xlink:href="#DejaVuSans-74" x="429.638672"/>
      <use xlink:href="#DejaVuSans-65" x="468.847656"/>
      <use xlink:href="#DejaVuSans-64" x="530.371094"/>
      <use xlink:href="#DejaVuSans-5f" x="593.847656"/>
      <use xlink:href="#DejaVuSans-4f" x="643.847656"/>
      <use xlink:href="#DejaVuSans-32" x="722.558594"/>
      <use xlink:href="#DejaVuSans-5f" x="786.181641"/>
      <use xlink:href="#DejaVuSans-62" x="836.181641"/>
      <use xlink:href="#DejaVuSans-2e" x="899.658203"/>
      <use xlink:href="#DejaVuSans-74" x="931.445312"/>
      <use xlink:href="#DejaVuSans-78" x="970.654297"/>
      <use xlink:href="#DejaVuSans-74" x="1029.833984"/>
     </g>
    </g>
    <g id="line2d_36">
     <path d="M 66.6 129.351688 
L 76.6 129.351688 
L 86.6 129.351688 
" style="fill: none; stroke: #8c564b; stroke-width: 1.5; stroke-linecap: square"/>
     <g>
      <use xlink:href="#m30e57b7d52" x="76.6" y="129.351688" style="fill: #8c564b; stroke: #8c564b"/>
     </g>
    </g>
    <g id="text_21">
     <!-- data_sorted_O2_c.txt -->
     <g transform="translate(94.6 132.851688) scale(0.1 -0.1)">
      <use xlink:href="#DejaVuSans-64"/>
      <use xlink:href="#DejaVuSans-61" x="63.476562"/>
      <use xlink:href="#DejaVuSans-74" x="124.755859"/>
      <use xlink:href="#DejaVuSans-61" x="163.964844"/>
      <use xlink:href="#DejaVuSans-5f" x="225.244141"/>
      <use xlink:href="#DejaVuSans-73" x="275.244141"/>
      <use xlink:href="#DejaVuSans-6f" x="327.34375"/>
      <use xlink:href="#DejaVuSans-72" x="388.525391"/>
      <use xlink:href="#DejaVuSans-74" x="429.638672"/>
      <use xlink:href="#DejaVuSans-65" x="468.847656"/>
      <use xlink:href="#DejaVuSans-64" x="530.371094"/>
      <use xlink:href="#DejaVuSans-5f" x="593.847656"/>
      <use xlink:href="#DejaVuSans-4f" x="643.847656"/>
      <use xlink:href="#DejaVuSans-32" x="722.558594"/>
      <use xlink:href="#DejaVuSans-5f" x="786.181641"/>
      <use xlink:href="#DejaVuSans-63" x="836.181641"/>
      <use xlink:href="#DejaVuSans-2e" x="891.162109"/>
      <use xlink:href="#DejaVuSans-74" x="922.949219"/>
      <use xlink:href="#DejaVuSans-78" x="962.158203"/>
      <use xlink:href="#DejaVuSans-74" x="1021.337891"/>
     </g>
    </g>
   </g>
  </g>
 </g>
 <defs>
  <clipPath id="p6bbb4da697">
   <rect x="57.6" y="41.472" width="357.12" height="266.112"/>
  </clipPath>
 </defs>
</svg>
